<?xml version="1.0" encoding="UTF-8"?>
<svg enable-background="new 0 0 100 100" version="1.1" viewBox="0 0 100 100" xml:space="preserve" xmlns="http://www.w3.org/2000/svg">
<style type="text/css">
	.st0{fill:#FFFFFF;}
</style>
	<circle class="st0" cx="49.7" cy="27.5" r="6.8"/>
	<circle cx="49.7" cy="72.5" r="6.8"/>
	<path d="m49.7 3.2c25.8 0 46.8 21 46.8 46.8s-21 46.8-46.8 46.8-46.8-21-46.8-46.8 21-46.8 46.8-46.8zm42.5 46.8c0-23.5-19-42.5-42.5-42.5h-0.3c-23.3 0.2-42.2 19.1-42.2 42.5 0 23.5 19 42.5 42.5 42.5h0.3c23.4-0.2 42.2-19.1 42.2-42.5z"/>
	<path d="m49.7 7.1c23.7 0 42.9 19.2 42.9 42.9 0 23.6-19 42.7-42.6 42.9 11.7-0.2 21.1-9.7 21.1-21.4 0-11.8-9.6-21.4-21.4-21.4s-21.5-9.6-21.5-21.5c0-11.7 9.4-21.3 21.1-21.4 0.2-0.1 0.3-0.1 0.4-0.1zm6.8 20.4c0-3.7-3-6.8-6.8-6.8s-6.8 3-6.8 6.8 3 6.8 6.8 6.8 6.8-3.1 6.8-6.8z"/>
	<path class="st0" d="m49.7 50c11.8 0 21.4 9.6 21.4 21.4 0 11.7-9.4 21.3-21.1 21.4h-0.3c-23.7 0.1-42.9-19.1-42.9-42.8 0-23.6 19-42.7 42.6-42.9-11.7 0.2-21.1 9.7-21.1 21.4 0 11.9 9.6 21.5 21.4 21.5zm6.8 22.5c0-3.7-3-6.8-6.8-6.8s-6.8 3-6.8 6.8c0 3.7 3 6.8 6.8 6.8s6.8-3.1 6.8-6.8z"/>
</svg>
